Coordinates
version=1
nRows=27
nColumns=38
inDegrees=no

Units are S.I. units (second, meters, Newtons, ...)
If the header above contains a line with 'inDegrees', this indicates whether rotational values are in degrees (yes) or radians (no).

endheader
time	pelvis_tilt	pelvis_list	pelvis_rotation	pelvis_tx	pelvis_ty	pelvis_tz	hip_flexion_r	hip_adduction_r	hip_rotation_r	knee_angle_r	ankle_angle_r	subtalar_angle_r	mtp_angle_r	hip_flexion_l	hip_adduction_l	hip_rotation_l	knee_angle_l	ankle_angle_l	subtalar_angle_l	mtp_angle_l	lumbar_extension	lumbar_bending	lumbar_rotation	arm_flex_r	arm_add_r	arm_rot_r	elbow_flex_r	pro_sup_r	wrist_flex_r	wrist_dev_r	arm_flex_l	arm_add_l	arm_rot_l	elbow_flex_l	pro_sup_l	wrist_flex_l	wrist_dev_l
6.08	-0.0504034	1.32174	1.60023	0.665298	0.382272	1.01164	0.556879	0.00212008	0.14048	0.560076	-0.158694	0	0	0.417576	0.00711036	-0.0771849	0.474145	-0.169849	0	0	-0.303127	0.0495789	0.0328059	-0.195861	-0.238704	-0.0533284	1.23157	1.43493	0	0	-0.140661	-0.10508	-0.274862	1.02741	1.5708	0	0
6.09	-0.045962	1.3239	1.59364	0.66514	0.383736	1.01132	0.555443	0.00424773	0.142343	0.564376	-0.157294	0	0	0.409199	0.00689838	-0.0819952	0.465773	-0.16864	0	0	-0.303877	0.0501541	0.0320445	-0.196877	-0.239195	-0.0515115	1.23093	1.43092	0	0	-0.145815	-0.105141	-0.275731	1.02929	1.5708	0	0
6.1	-0.04109	1.32503	1.58824	0.664816	0.38531	1.01091	0.554789	0.00543051	0.142275	0.568419	-0.156162	0	0	0.401977	0.00740255	-0.084029	0.457661	-0.166859	0	0	-0.302895	0.0513188	0.0298961	-0.198403	-0.238334	-0.0516764	1.22943	1.43701	0	0	-0.150831	-0.10543	-0.275677	1.02956	1.5708	0	0
6.11	-0.0398682	1.3283	1.58502	0.664697	0.386747	1.01078	0.551514	0.0070758	0.145238	0.57168	-0.149641	0	0	0.391924	0.00821431	-0.0848203	0.447306	-0.166694	0	0	-0.306178	0.050561	0.0242374	-0.195604	-0.238153	-0.0465718	1.22682	1.44886	0	0	-0.159269	-0.103651	-0.283643	1.03553	1.5708	0	0
6.12	-0.0407675	1.33065	1.5834	0.664676	0.388005	1.01064	0.549685	0.00874526	0.149516	0.575354	-0.147324	0	0	0.384828	0.00869369	-0.0834164	0.441415	-0.166094	0	0	-0.307795	0.0490771	0.0220134	-0.195007	-0.237775	-0.0440974	1.22526	1.45127	0	0	-0.165031	-0.10339	-0.286381	1.03856	1.5708	0	0
6.13	-0.0453091	1.33291	1.5862	0.664602	0.389125	1.01058	0.548224	0.00907207	0.153109	0.579223	-0.14518	0	0	0.37963	0.00979629	-0.0799209	0.438329	-0.165489	0	0	-0.30954	0.046753	0.0190259	-0.194278	-0.237021	-0.0419844	1.2237	1.45343	0	0	-0.170325	-0.103296	-0.289111	1.04178	1.5708	0	0
6.14	-0.0525729	1.33475	1.59328	0.664392	0.390121	1.01057	0.547293	0.00780258	0.154911	0.58321	-0.142428	0	0	0.376876	0.01166	-0.0753426	0.43811	-0.165405	0	0	-0.311107	0.0440667	0.0142387	-0.193107	-0.236113	-0.0396978	1.22192	1.45503	0	0	-0.175642	-0.10318	-0.29252	1.04579	1.5708	0	0
6.15	-0.0606018	1.33637	1.60266	0.664065	0.391031	1.01059	0.546115	0.00567777	0.155266	0.586577	-0.138786	0	0	0.375686	0.014024	-0.0688664	0.440554	-0.165102	0	0	-0.312764	0.0414159	0.00758178	-0.191362	-0.235057	-0.0370672	1.21991	1.45632	0	0	-0.181421	-0.103311	-0.296381	1.05119	1.5708	0	0
6.16	-0.0670949	1.33804	1.61084	0.663713	0.391921	1.01066	0.543946	0.00393705	0.155706	0.588211	-0.136471	0	0	0.374635	0.0159207	-0.0626163	0.44391	-0.16467	0	0	-0.314258	0.0393037	0.00244947	-0.190815	-0.234017	-0.0359643	1.21869	1.45675	0	0	-0.185843	-0.103653	-0.298614	1.05546	1.5708	0	0
6.17	-0.0718192	1.34003	1.61757	0.663326	0.392866	1.01077	0.540946	0.00209952	0.155055	0.589013	-0.134311	0	0	0.373016	0.017441	-0.0568769	0.44763	-0.163893	0	0	-0.316105	0.0377647	-0.00263878	-0.190387	-0.233275	-0.0348207	1.21778	1.45646	0	0	-0.190247	-0.103957	-0.300724	1.05988	1.5708	0	0
6.18	-0.0739471	1.34247	1.62176	0.662908	0.393891	1.01091	0.537259	0.000634238	0.153457	0.589609	-0.132312	0	0	0.3707	0.0182368	-0.0529422	0.45125	-0.162711	0	0	-0.318333	0.0370068	-0.00753742	-0.189949	-0.233013	-0.0333804	1.21714	1.4556	0	0	-0.194709	-0.104148	-0.302653	1.06424	1.5708	0	0
6.19	-0.0740506	1.34524	1.6234	0.662503	0.394978	1.01107	0.533049	-8.53805e-05	0.152275	0.589929	-0.130507	0	0	0.367721	0.0183656	-0.0511288	0.454278	-0.161413	0	0	-0.32078	0.0366962	-0.0117543	-0.189621	-0.233134	-0.0317076	1.21673	1.45427	0	0	-0.199181	-0.103952	-0.304741	1.06855	1.5708	0	0
6.2	-0.0731627	1.34816	1.62338	0.662137	0.396099	1.01123	0.528659	-0.000195549	0.152034	0.59021	-0.128943	0	0	0.36411	0.018056	-0.0513251	0.456135	-0.160373	0	0	-0.323248	0.0365191	-0.0151933	-0.189307	-0.233724	-0.0295406	1.21634	1.45225	0	0	-0.20364	-0.103511	-0.306842	1.07299	1.5708	0	0
6.21	-0.0722434	1.35115	1.62268	0.661796	0.397214	1.01142	0.524222	-8.39198e-08	0.15269	0.590428	-0.127612	0	0	0.359845	0.0175501	-0.0530153	0.456431	-0.159766	0	0	-0.325664	0.0362537	-0.0179286	-0.188841	-0.23488	-0.0267759	1.21584	1.44955	0	0	-0.208081	-0.103096	-0.308654	1.07757	1.5708	0	0
6.22	-0.0719133	1.35416	1.6219	0.661489	0.398309	1.0116	0.519949	5.04402e-05	0.153912	0.590712	-0.126507	0	0	0.354995	0.016913	-0.0556334	0.455393	-0.1595	0	0	-0.328138	0.0357588	-0.0201308	-0.188169	-0.236628	-0.0233901	1.21544	1.44633	0	0	-0.21269	-0.102972	-0.309771	1.08229	1.5708	0	0
6.23	-0.071795	1.35699	1.62077	0.661231	0.399377	1.01175	0.516147	0.000269341	0.155321	0.591334	-0.12553	0	0	0.349943	0.0160524	-0.0590738	0.453241	-0.159479	0	0	-0.330403	0.0350111	-0.0219178	-0.187415	-0.238894	-0.01942	1.21519	1.44257	0	0	-0.217528	-0.103075	-0.310538	1.08721	1.5708	0	0
6.24	-0.0727907	1.35971	1.62024	0.661015	0.400411	1.01187	0.512652	0.00046821	0.156992	0.592064	-0.12463	0	0	0.344613	0.0152662	-0.0632572	0.450025	-0.159602	0	0	-0.332507	0.0337553	-0.0233917	-0.186562	-0.241869	-0.0146216	1.21503	1.43836	0	0	-0.222439	-0.103246	-0.311469	1.09225	1.5708	0	0
6.25	-0.0754572	1.36233	1.62107	0.660831	0.401403	1.012	0.509283	0.00031674	0.15873	0.592518	-0.123764	0	0	0.339297	0.0149128	-0.0679376	0.446585	-0.159723	0	0	-0.334569	0.031917	-0.0247544	-0.185441	-0.24524	-0.0092419	1.21479	1.43406	0	0	-0.227192	-0.103409	-0.31274	1.09728	1.5708	0	0
6.26	-0.0793475	1.36501	1.62326	0.660672	0.402367	1.01219	0.505747	-0.000165189	0.159627	0.593039	-0.122855	0	0	0.334126	0.015058	-0.072524	0.443727	-0.159616	0	0	-0.336828	0.0296886	-0.0263279	-0.184156	-0.248556	-0.00376055	1.21464	1.42996	0	0	-0.231746	-0.103697	-0.314213	1.10226	1.5708	0	0
6.27	-0.0833931	1.36761	1.6258	0.660569	0.403312	1.0124	0.502139	-0.000658349	0.160103	0.593264	-0.121963	0	0	0.329424	0.0154669	-0.0764598	0.441955	-0.159241	0	0	-0.339084	0.0272252	-0.0280598	-0.182909	-0.251301	0.00115782	1.21464	1.42603	0	0	-0.236438	-0.104107	-0.315682	1.10723	1.5708	0	0
6.28	-0.0869573	1.36983	1.62813	0.66047	0.40424	1.01259	0.498575	-0.00115715	0.160265	0.592663	-0.121164	0	0	0.325491	0.0159501	-0.0798663	0.441003	-0.158858	0	0	-0.340899	0.0247517	-0.0299375	-0.181659	-0.253695	0.00565774	1.21456	1.42193	0	0	-0.241118	-0.104431	-0.317213	1.11196	1.5708	0	0
6.29	-0.0902276	1.37188	1.6303	0.660396	0.405182	1.01279	0.495083	-0.00177536	0.159851	0.591859	-0.120498	0	0	0.321854	0.0164863	-0.0824043	0.440344	-0.158462	0	0	-0.342252	0.0221941	-0.0315843	-0.180624	-0.256068	0.0100184	1.21447	1.41794	0	0	-0.245573	-0.104564	-0.318796	1.1162	1.5708	0	0
6.3	-0.0928731	1.3739	1.63177	0.660381	0.406168	1.01301	0.491443	-0.00219136	0.159135	0.590785	-0.119797	0	0	0.318188	0.0168214	-0.0842743	0.439656	-0.158085	0	0	-0.343359	0.0195532	-0.0330762	-0.179616	-0.258505	0.0146491	1.21432	1.4132	0	0	-0.249969	-0.104168	-0.321168	1.12032	1.5708	0	0
6.31	-0.0941053	1.37544	1.63173	0.660398	0.407172	1.01322	0.488025	-0.00217554	0.158491	0.589141	-0.119206	0	0	0.314992	0.0168062	-0.0852792	0.438963	-0.157625	0	0	-0.343679	0.017125	-0.0338924	-0.179074	-0.26078	0.0186712	1.21429	1.40861	0	0	-0.253777	-0.103256	-0.324089	1.12384	1.5708	0	0
6.32	-0.093994	1.37711	1.63042	0.660374	0.408189	1.01344	0.484355	-0.00205593	0.157089	0.587227	-0.118643	0	0	0.311578	0.0164873	-0.0856365	0.438129	-0.157093	0	0	-0.344074	0.015049	-0.03443	-0.178712	-0.2635	0.022994	1.21472	1.40281	0	0	-0.257241	-0.10171	-0.327821	1.12738	1.5708	0	0
6.33	-0.0922633	1.37905	1.62732	0.660349	0.409224	1.01368	0.480438	-0.00172273	0.155614	0.585302	-0.118231	0	0	0.307679	0.0157294	-0.0858747	0.436875	-0.156699	0	0	-0.34463	0.0130645	-0.0341819	-0.178554	-0.266254	0.0270989	1.21536	1.39592	0	0	-0.260498	-0.0996441	-0.332111	1.13136	1.5708	0	0
6.34	-0.0896278	1.3809	1.62311	0.660326	0.410261	1.01391	0.476605	-0.00106783	0.154634	0.583381	-0.11791	0	0	0.303667	0.0147946	-0.0858416	0.435166	-0.156375	0	0	-0.344898	0.011141	-0.0330918	-0.178885	-0.268684	0.0304203	1.21646	1.38907	0	0	-0.263558	-0.0978207	-0.335837	1.13548	1.5708	0	0
